<svg width="200" height="200" xmlns="http://www.w3.org/2000/svg" viewBox="0 0 100 120">
  <path d="m16.43 108.4-4.8 11.21c-.14.33-.28.7-.41 1.05l-.42-1.06L6 108.4H1.97L.24 129.68H4.4l.99-12.86 4.12 9.27h3.39l4.13-9.22 1.02 12.81h4.14l-1.74-21.28h-4.03zm33.24 3.7h6.92v17.53h4.16V112.1h6.91v-3.75H49.67zm57.53 8.5a6.2 6.2 0 0 0 3.3-5.71c0-2.83-1.46-5.14-3.83-6.02-.83-.3-1.79-.5-4-.5h-6.84v21.29h4.16v-7.95h3.25l4.26 7.95h4.72l-4.83-8.74zm-7.2-8.47h2.58c1.45 0 2.02.14 2.45.37.83.45 1.26 1.3 1.26 2.5 0 1.88-1.06 2.96-2.9 2.96h-3.4v-5.83zm34.4 13.27a11 11 0 0 0 2.14-6.52c0-6.1-4.85-10.87-11.04-10.87s-11 4.77-11 10.87 4.83 11.09 11 11.09c2.36 0 4.54-.67 6.34-1.94l2.42 2.4 2.58-2.73zm-7.83-2.4 2.26 2.18a6.8 6.8 0 0 1-3.33.9c-3.85 0-6.76-3.1-6.76-7.2s2.91-7 6.77-7 6.79 3 6.79 7a7.5 7.5 0 0 1-.94 3.61l-2.21-2.22zm-78.07-2.5a11.5 11.5 0 0 0 0-3.04l-2.38-.81a9.2 9.2 0 0 0-1.02-2.46l1.1-2.24c-.61-.8-1.34-1.53-2.15-2.15l-2.27 1.1c-.77-.46-1.6-.8-2.5-1.03l-.81-2.36a12 12 0 0 0-3.06 0l-.82 2.36c-.9.23-1.73.57-2.5 1.03l-2.26-1.1a11.6 11.6 0 0 0-2.16 2.15l1.1 2.24c-.45.76-.8 1.59-1.02 2.46l-2.38.8c-.06.5-.11 1-.11 1.5 0 .51.05 1.04.12 1.55l2.39.81a9 9 0 0 0 1.02 2.43l-1.11 2.24c.63.8 1.36 1.53 2.19 2.15l2.27-1.1c.75.44 1.56.78 2.43 1l.82 2.36a11.6 11.6 0 0 0 3.09 0l.82-2.36a9.5 9.5 0 0 0 2.43-1l2.27 1.1c.83-.62 1.56-1.34 2.19-2.15l-1.1-2.24a9.3 9.3 0 0 0 1.01-2.43zm-11.56 3.95c-3.07 0-5.56-2.46-5.56-5.5s2.5-5.5 5.56-5.5 5.56 2.47 5.56 5.5-2.5 5.5-5.56 5.5m54.95-3.95a11.5 11.5 0 0 0 0-3.04l-2.38-.81a9.2 9.2 0 0 0-1.02-2.46l1.1-2.24c-.62-.8-1.34-1.53-2.15-2.15l-2.27 1.1c-.77-.46-1.6-.8-2.5-1.03l-.81-2.36a12 12 0 0 0-3.06 0l-.82 2.36c-.9.23-1.73.57-2.5 1.03l-2.26-1.1a11.6 11.6 0 0 0-2.16 2.15l1.1 2.24c-.45.76-.8 1.59-1.02 2.46l-2.38.8c-.06.5-.11 1-.11 1.5 0 .51.05 1.04.12 1.55l2.39.81a9 9 0 0 0 1.02 2.43l-1.11 2.24c.63.8 1.36 1.53 2.19 2.15l2.27-1.1c.75.44 1.56.78 2.43 1l.82 2.36a12 12 0 0 0 3.09 0l.82-2.36a9.5 9.5 0 0 0 2.43-1l2.27 1.1c.83-.62 1.56-1.34 2.19-2.15l-1.1-2.24a9.3 9.3 0 0 0 1.01-2.43zm-11.56 3.95c-3.07 0-5.56-2.46-5.56-5.5s2.49-5.5 5.56-5.5 5.56 2.47 5.56 5.5-2.5 5.5-5.56 5.5" transform="scale(0.5) translate(10, 10)" />
</svg>
